<svg id="visual" viewBox="0 0 1200 200" width="1200" height="200" xmlns="http://www.w3.org/2000/svg" xmlns:xlink="http://www.w3.org/1999/xlink" version="1.1"><rect x="0" y="0" width="1200" height="200" fill="#931C1C"></rect><path d="M0 22L63 23L126 19L189 27L253 61L316 58L379 68L442 57L505 42L568 52L632 46L695 67L758 32L821 20L884 30L947 62L1011 34L1074 58L1137 66L1200 21L1200 201L1137 201L1074 201L1011 201L947 201L884 201L821 201L758 201L695 201L632 201L568 201L505 201L442 201L379 201L316 201L253 201L189 201L126 201L63 201L0 201Z" fill="#871400"></path><path d="M0 54L63 82L126 56L189 58L253 43L316 43L379 47L442 48L505 63L568 66L632 54L695 80L758 62L821 43L884 66L947 59L1011 52L1074 36L1137 62L1200 77L1200 201L1137 201L1074 201L1011 201L947 201L884 201L821 201L758 201L695 201L632 201L568 201L505 201L442 201L379 201L316 201L253 201L189 201L126 201L63 201L0 201Z" fill="#952103"></path><path d="M0 85L63 87L126 89L189 59L253 79L316 87L379 99L442 74L505 56L568 60L632 55L695 78L758 76L821 65L884 74L947 59L1011 87L1074 57L1137 84L1200 97L1200 201L1137 201L1074 201L1011 201L947 201L884 201L821 201L758 201L695 201L632 201L568 201L505 201L442 201L379 201L316 201L253 201L189 201L126 201L63 201L0 201Z" fill="#a32d04"></path><path d="M0 95L63 111L126 91L189 85L253 94L316 89L379 90L442 101L505 108L568 107L632 95L695 99L758 89L821 84L884 85L947 91L1011 84L1074 97L1137 78L1200 74L1200 201L1137 201L1074 201L1011 201L947 201L884 201L821 201L758 201L695 201L632 201L568 201L505 201L442 201L379 201L316 201L253 201L189 201L126 201L63 201L0 201Z" fill="#b03806"></path><path d="M0 99L63 129L126 95L189 127L253 99L316 99L379 98L442 109L505 105L568 129L632 101L695 96L758 116L821 115L884 109L947 126L1011 121L1074 103L1137 126L1200 124L1200 201L1137 201L1074 201L1011 201L947 201L884 201L821 201L758 201L695 201L632 201L568 201L505 201L442 201L379 201L316 201L253 201L189 201L126 201L63 201L0 201Z" fill="#be4407"></path><path d="M0 137L63 138L126 116L189 114L253 135L316 144L379 138L442 124L505 115L568 141L632 138L695 132L758 121L821 144L884 142L947 130L1011 143L1074 142L1137 128L1200 117L1200 201L1137 201L1074 201L1011 201L947 201L884 201L821 201L758 201L695 201L632 201L568 201L505 201L442 201L379 201L316 201L253 201L189 201L126 201L63 201L0 201Z" fill="#cc4f08"></path><path d="M0 154L63 159L126 145L189 147L253 146L316 141L379 139L442 140L505 140L568 143L632 143L695 134L758 158L821 157L884 144L947 160L1011 159L1074 155L1137 136L1200 140L1200 201L1137 201L1074 201L1011 201L947 201L884 201L821 201L758 201L695 201L632 201L568 201L505 201L442 201L379 201L316 201L253 201L189 201L126 201L63 201L0 201Z" fill="#da5b09"></path><path d="M0 159L63 154L126 164L189 173L253 155L316 149L379 155L442 166L505 156L568 159L632 152L695 163L758 169L821 166L884 162L947 150L1011 150L1074 157L1137 173L1200 167L1200 201L1137 201L1074 201L1011 201L947 201L884 201L821 201L758 201L695 201L632 201L568 201L505 201L442 201L379 201L316 201L253 201L189 201L126 201L63 201L0 201Z" fill="#e7670a"></path><path d="M0 176L63 173L126 189L189 182L253 186L316 179L379 187L442 168L505 189L568 171L632 173L695 175L758 185L821 188L884 178L947 181L1011 182L1074 189L1137 181L1200 177L1200 201L1137 201L1074 201L1011 201L947 201L884 201L821 201L758 201L695 201L632 201L568 201L505 201L442 201L379 201L316 201L253 201L189 201L126 201L63 201L0 201Z" fill="#f5730a"></path></svg>